<mxfile host="app.diagrams.net" modified="2024-04-21T09:02:59.903Z" agent="Mozilla/5.0 (Windows NT 10.0; Win64; x64) AppleWebKit/537.36 (KHTML, like Gecko) Chrome/123.0.0.0 Safari/537.36" etag="iZ2sgANy0c4P99BsOndH" version="24.2.7" type="github">
  <diagram name="Page-1" id="9f46799a-70d6-7492-0946-bef42562c5a5">
    <mxGraphModel dx="5876" dy="3714" grid="1" gridSize="10" guides="1" tooltips="1" connect="1" arrows="1" fold="1" page="1" pageScale="1" pageWidth="1100" pageHeight="850" background="none" math="0" shadow="0">
      <root>
        <mxCell id="0" />
        <mxCell id="1" parent="0" />
        <mxCell id="BGc9-rfhwngNxV3TcEdf-12" style="edgeStyle=orthogonalEdgeStyle;rounded=0;orthogonalLoop=1;jettySize=auto;html=1;exitX=0;exitY=0;exitDx=0;exitDy=0;entryX=0;entryY=0;entryDx=0;entryDy=0;" edge="1" parent="1" target="78961159f06e98e8-30">
          <mxGeometry relative="1" as="geometry">
            <mxPoint x="1146" y="280" as="targetPoint" />
            <mxPoint x="936" y="960" as="sourcePoint" />
            <Array as="points">
              <mxPoint x="936" y="280" />
              <mxPoint x="1120" y="280" />
            </Array>
          </mxGeometry>
        </mxCell>
        <mxCell id="BGc9-rfhwngNxV3TcEdf-5" value="" style="rounded=1;whiteSpace=wrap;html=1;arcSize=6;fillColor=none;" vertex="1" parent="1">
          <mxGeometry x="920" y="960" width="710" height="400" as="geometry" />
        </mxCell>
        <mxCell id="BGc9-rfhwngNxV3TcEdf-11" style="edgeStyle=orthogonalEdgeStyle;rounded=0;orthogonalLoop=1;jettySize=auto;html=1;exitX=0.5;exitY=0;exitDx=0;exitDy=0;" edge="1" parent="1" source="Ejn6gaaikQ-Xtd8Uwc8r-64" target="BQu4C3gWIdR_t5J09sVz-2">
          <mxGeometry relative="1" as="geometry">
            <mxPoint x="540" y="290" as="targetPoint" />
            <Array as="points">
              <mxPoint x="430" y="290" />
            </Array>
          </mxGeometry>
        </mxCell>
        <mxCell id="Ejn6gaaikQ-Xtd8Uwc8r-64" value="" style="rounded=1;whiteSpace=wrap;html=1;glass=0;align=center;verticalAlign=middle;spacingLeft=0;spacingRight=0;spacingTop=0;spacing=0;arcSize=4;fontFamily=Helvetica;fontSize=12;fontColor=default;labelBorderColor=default;labelBackgroundColor=default;fillColor=none;gradientColor=none;" parent="1" vertex="1">
          <mxGeometry y="960" width="860" height="670" as="geometry" />
        </mxCell>
        <mxCell id="Ejn6gaaikQ-Xtd8Uwc8r-2" value="" style="rounded=1;whiteSpace=wrap;html=1;gradientColor=none;fillColor=none;labelBackgroundColor=none;labelBorderColor=none;textShadow=0;fontColor=none;noLabel=1;strokeColor=default;arcSize=2;" parent="1" vertex="1">
          <mxGeometry x="-680" y="960" width="580" height="450" as="geometry" />
        </mxCell>
        <mxCell id="78961159f06e98e8-17" value="Page.js&lt;div&gt;&lt;br&gt;&lt;/div&gt;" style="swimlane;html=1;fontStyle=1;align=center;verticalAlign=top;childLayout=stackLayout;horizontal=1;startSize=26;horizontalStack=0;resizeParent=1;resizeLast=0;collapsible=1;marginBottom=0;swimlaneFillColor=#ffffff;rounded=0;shadow=0;comic=0;labelBackgroundColor=none;strokeWidth=1;fillColor=#dae8fc;fontFamily=Verdana;fontSize=12;strokeColor=#6c8ebf;" parent="1" vertex="1">
          <mxGeometry x="550" y="-280" width="220" height="380" as="geometry" />
        </mxCell>
        <mxCell id="78961159f06e98e8-21" value="&lt;b&gt;&lt;font style=&quot;font-size: 15px;&quot;&gt;Create&lt;/font&gt;&lt;/b&gt;" style="text;html=1;strokeColor=none;fillColor=none;align=center;verticalAlign=top;spacingLeft=4;spacingRight=4;whiteSpace=wrap;overflow=hidden;rotatable=0;points=[[0,0.5],[1,0.5]];portConstraint=eastwest;" parent="78961159f06e98e8-17" vertex="1">
          <mxGeometry y="26" width="220" height="26" as="geometry" />
        </mxCell>
        <mxCell id="78961159f06e98e8-23" value="1- [data , setData]" style="text;html=1;strokeColor=none;fillColor=none;align=left;verticalAlign=top;spacingLeft=4;spacingRight=4;whiteSpace=wrap;overflow=hidden;rotatable=0;points=[[0,0.5],[1,0.5]];portConstraint=eastwest;" parent="78961159f06e98e8-17" vertex="1">
          <mxGeometry y="52" width="220" height="26" as="geometry" />
        </mxCell>
        <mxCell id="78961159f06e98e8-25" value="2- [search , setSearch]" style="text;html=1;strokeColor=none;fillColor=none;align=left;verticalAlign=top;spacingLeft=4;spacingRight=4;whiteSpace=wrap;overflow=hidden;rotatable=0;points=[[0,0.5],[1,0.5]];portConstraint=eastwest;" parent="78961159f06e98e8-17" vertex="1">
          <mxGeometry y="78" width="220" height="26" as="geometry" />
        </mxCell>
        <mxCell id="78961159f06e98e8-26" value="3- [showForm , setShowForm]" style="text;html=1;strokeColor=none;fillColor=none;align=left;verticalAlign=top;spacingLeft=4;spacingRight=4;whiteSpace=wrap;overflow=hidden;rotatable=0;points=[[0,0.5],[1,0.5]];portConstraint=eastwest;" parent="78961159f06e98e8-17" vertex="1">
          <mxGeometry y="104" width="220" height="26" as="geometry" />
        </mxCell>
        <mxCell id="78961159f06e98e8-24" value="4- [newData , setNewData]" style="text;html=1;strokeColor=none;fillColor=none;align=left;verticalAlign=top;spacingLeft=4;spacingRight=4;whiteSpace=wrap;overflow=hidden;rotatable=0;points=[[0,0.5],[1,0.5]];portConstraint=eastwest;" parent="78961159f06e98e8-17" vertex="1">
          <mxGeometry y="130" width="220" height="26" as="geometry" />
        </mxCell>
        <mxCell id="78961159f06e98e8-20" value="5- [align , SetAlign] = (right)" style="text;html=1;strokeColor=none;fillColor=none;align=left;verticalAlign=top;spacingLeft=4;spacingRight=4;whiteSpace=wrap;overflow=hidden;rotatable=0;points=[[0,0.5],[1,0.5]];portConstraint=eastwest;" parent="78961159f06e98e8-17" vertex="1">
          <mxGeometry y="156" width="220" height="26" as="geometry" />
        </mxCell>
        <mxCell id="78961159f06e98e8-27" value="6- [border , setBorder] = (no-border)" style="text;html=1;strokeColor=none;fillColor=none;align=left;verticalAlign=top;spacingLeft=4;spacingRight=4;whiteSpace=wrap;overflow=hidden;rotatable=0;points=[[0,0.5],[1,0.5]];portConstraint=eastwest;" parent="78961159f06e98e8-17" vertex="1">
          <mxGeometry y="182" width="220" height="26" as="geometry" />
        </mxCell>
        <mxCell id="BGc9-rfhwngNxV3TcEdf-13" value="7- [editData , setEditData]&amp;nbsp;" style="text;html=1;strokeColor=none;fillColor=none;align=left;verticalAlign=top;spacingLeft=4;spacingRight=4;whiteSpace=wrap;overflow=hidden;rotatable=0;points=[[0,0.5],[1,0.5]];portConstraint=eastwest;" vertex="1" parent="78961159f06e98e8-17">
          <mxGeometry y="208" width="220" height="26" as="geometry" />
        </mxCell>
        <mxCell id="BGc9-rfhwngNxV3TcEdf-14" value="8- [deleteItem , setDeleteItem" style="text;html=1;strokeColor=none;fillColor=none;align=left;verticalAlign=top;spacingLeft=4;spacingRight=4;whiteSpace=wrap;overflow=hidden;rotatable=0;points=[[0,0.5],[1,0.5]];portConstraint=eastwest;" vertex="1" parent="78961159f06e98e8-17">
          <mxGeometry y="234" width="220" height="26" as="geometry" />
        </mxCell>
        <mxCell id="BGc9-rfhwngNxV3TcEdf-15" value="9- [deleteMultiple , setDeleteMultiple]" style="text;html=1;strokeColor=none;fillColor=none;align=left;verticalAlign=top;spacingLeft=4;spacingRight=4;whiteSpace=wrap;overflow=hidden;rotatable=0;points=[[0,0.5],[1,0.5]];portConstraint=eastwest;" vertex="1" parent="78961159f06e98e8-17">
          <mxGeometry y="260" width="220" height="26" as="geometry" />
        </mxCell>
        <mxCell id="BGc9-rfhwngNxV3TcEdf-31" value="10- HeadTable" style="text;html=1;strokeColor=none;fillColor=none;align=left;verticalAlign=top;spacingLeft=4;spacingRight=4;whiteSpace=wrap;overflow=hidden;rotatable=0;points=[[0,0.5],[1,0.5]];portConstraint=eastwest;" vertex="1" parent="78961159f06e98e8-17">
          <mxGeometry y="286" width="220" height="26" as="geometry" />
        </mxCell>
        <mxCell id="BGc9-rfhwngNxV3TcEdf-32" value="11- keyObject" style="text;html=1;strokeColor=none;fillColor=none;align=left;verticalAlign=top;spacingLeft=4;spacingRight=4;whiteSpace=wrap;overflow=hidden;rotatable=0;points=[[0,0.5],[1,0.5]];portConstraint=eastwest;" vertex="1" parent="78961159f06e98e8-17">
          <mxGeometry y="312" width="220" height="26" as="geometry" />
        </mxCell>
        <mxCell id="BGc9-rfhwngNxV3TcEdf-17" value="12- formFormat" style="text;html=1;strokeColor=none;fillColor=none;align=left;verticalAlign=top;spacingLeft=4;spacingRight=4;whiteSpace=wrap;overflow=hidden;rotatable=0;points=[[0,0.5],[1,0.5]];portConstraint=eastwest;" vertex="1" parent="78961159f06e98e8-17">
          <mxGeometry y="338" width="220" height="26" as="geometry" />
        </mxCell>
        <mxCell id="78961159f06e98e8-19" value="" style="line;html=1;strokeWidth=1;fillColor=none;align=left;verticalAlign=middle;spacingTop=-1;spacingLeft=3;spacingRight=3;rotatable=0;labelPosition=right;points=[];portConstraint=eastwest;" parent="78961159f06e98e8-17" vertex="1">
          <mxGeometry y="364" width="220" height="8" as="geometry" />
        </mxCell>
        <mxCell id="78961159f06e98e8-30" value="FormAdd" style="swimlane;html=1;fontStyle=1;align=center;verticalAlign=top;childLayout=stackLayout;horizontal=1;startSize=30;horizontalStack=0;resizeParent=1;resizeLast=0;collapsible=1;marginBottom=0;swimlaneFillColor=#ffffff;rounded=0;shadow=0;comic=0;labelBackgroundColor=none;strokeWidth=1;fillColor=#f8cecc;fontFamily=Verdana;fontSize=12;strokeColor=#b85450;" parent="1" vertex="1">
          <mxGeometry x="1120" y="275" width="190" height="300" as="geometry" />
        </mxCell>
        <mxCell id="78961159f06e98e8-31" value="&lt;b&gt;&lt;font style=&quot;font-size: 15px;&quot;&gt;Take&lt;/font&gt;&lt;/b&gt;" style="text;html=1;strokeColor=none;fillColor=none;align=center;verticalAlign=top;spacingLeft=4;spacingRight=4;whiteSpace=wrap;overflow=hidden;rotatable=0;points=[[0,0.5],[1,0.5]];portConstraint=eastwest;" parent="78961159f06e98e8-30" vertex="1">
          <mxGeometry y="30" width="190" height="26" as="geometry" />
        </mxCell>
        <mxCell id="78961159f06e98e8-32" value="1- setShowForm" style="text;html=1;strokeColor=none;fillColor=none;align=left;verticalAlign=top;spacingLeft=4;spacingRight=4;whiteSpace=wrap;overflow=hidden;rotatable=0;points=[[0,0.5],[1,0.5]];portConstraint=eastwest;" parent="78961159f06e98e8-30" vertex="1">
          <mxGeometry y="56" width="190" height="26" as="geometry" />
        </mxCell>
        <mxCell id="78961159f06e98e8-33" value="2- formsFormat" style="text;html=1;strokeColor=none;fillColor=none;align=left;verticalAlign=top;spacingLeft=4;spacingRight=4;whiteSpace=wrap;overflow=hidden;rotatable=0;points=[[0,0.5],[1,0.5]];portConstraint=eastwest;" parent="78961159f06e98e8-30" vertex="1">
          <mxGeometry y="82" width="190" height="26" as="geometry" />
        </mxCell>
        <mxCell id="78961159f06e98e8-34" value="3- datasendEdit" style="text;html=1;strokeColor=none;fillColor=none;align=left;verticalAlign=top;spacingLeft=4;spacingRight=4;whiteSpace=wrap;overflow=hidden;rotatable=0;points=[[0,0.5],[1,0.5]];portConstraint=eastwest;" parent="78961159f06e98e8-30" vertex="1">
          <mxGeometry y="108" width="190" height="26" as="geometry" />
        </mxCell>
        <mxCell id="78961159f06e98e8-36" value="4- setEditData" style="text;html=1;strokeColor=none;fillColor=none;align=left;verticalAlign=top;spacingLeft=4;spacingRight=4;whiteSpace=wrap;overflow=hidden;rotatable=0;points=[[0,0.5],[1,0.5]];portConstraint=eastwest;" parent="78961159f06e98e8-30" vertex="1">
          <mxGeometry y="134" width="190" height="26" as="geometry" />
        </mxCell>
        <mxCell id="78961159f06e98e8-37" value="5- setNewData" style="text;html=1;strokeColor=none;fillColor=none;align=left;verticalAlign=top;spacingLeft=4;spacingRight=4;whiteSpace=wrap;overflow=hidden;rotatable=0;points=[[0,0.5],[1,0.5]];portConstraint=eastwest;" parent="78961159f06e98e8-30" vertex="1">
          <mxGeometry y="160" width="190" height="26" as="geometry" />
        </mxCell>
        <mxCell id="78961159f06e98e8-38" value="" style="line;html=1;strokeWidth=1;fillColor=none;align=left;verticalAlign=middle;spacingTop=-1;spacingLeft=3;spacingRight=3;rotatable=0;labelPosition=right;points=[];portConstraint=eastwest;" parent="78961159f06e98e8-30" vertex="1">
          <mxGeometry y="186" width="190" height="8" as="geometry" />
        </mxCell>
        <mxCell id="78961159f06e98e8-39" value="&lt;b&gt;&lt;font style=&quot;font-size: 15px;&quot;&gt;Return&lt;/font&gt;&lt;/b&gt;" style="text;html=1;strokeColor=none;fillColor=none;align=center;verticalAlign=top;spacingLeft=4;spacingRight=4;whiteSpace=wrap;overflow=hidden;rotatable=0;points=[[0,0.5],[1,0.5]];portConstraint=eastwest;" parent="78961159f06e98e8-30" vertex="1">
          <mxGeometry y="194" width="190" height="26" as="geometry" />
        </mxCell>
        <mxCell id="78961159f06e98e8-42" value="1 - True or false to close the form" style="text;html=1;strokeColor=none;fillColor=none;align=left;verticalAlign=top;spacingLeft=4;spacingRight=4;whiteSpace=wrap;overflow=hidden;rotatable=0;points=[[0,0.5],[1,0.5]];portConstraint=eastwest;" parent="78961159f06e98e8-30" vertex="1">
          <mxGeometry y="220" width="190" height="26" as="geometry" />
        </mxCell>
        <mxCell id="78961159f06e98e8-40" value="2- Empty dataSendEdit" style="text;html=1;strokeColor=none;fillColor=none;align=left;verticalAlign=top;spacingLeft=4;spacingRight=4;whiteSpace=wrap;overflow=hidden;rotatable=0;points=[[0,0.5],[1,0.5]];portConstraint=eastwest;" parent="78961159f06e98e8-30" vertex="1">
          <mxGeometry y="246" width="190" height="26" as="geometry" />
        </mxCell>
        <mxCell id="Ejn6gaaikQ-Xtd8Uwc8r-51" value="3 - New data entered" style="text;html=1;strokeColor=none;fillColor=none;align=left;verticalAlign=top;spacingLeft=4;spacingRight=4;whiteSpace=wrap;overflow=hidden;rotatable=0;points=[[0,0.5],[1,0.5]];portConstraint=eastwest;" parent="78961159f06e98e8-30" vertex="1">
          <mxGeometry y="272" width="190" height="26" as="geometry" />
        </mxCell>
        <mxCell id="78961159f06e98e8-69" value="Navbar" style="swimlane;html=1;fontStyle=1;align=center;verticalAlign=top;childLayout=stackLayout;horizontal=1;startSize=26;horizontalStack=0;resizeParent=1;resizeLast=0;collapsible=1;marginBottom=0;swimlaneFillColor=none;rounded=0;shadow=0;comic=0;labelBackgroundColor=default;strokeWidth=1;fontFamily=Verdana;fontSize=12;fillColor=#f8cecc;strokeColor=#b85450;" parent="1" vertex="1">
          <mxGeometry y="280" width="160" height="407.5" as="geometry" />
        </mxCell>
        <mxCell id="78961159f06e98e8-70" value="&lt;b&gt;&lt;font style=&quot;font-size: 17px;&quot;&gt;Take&lt;/font&gt;&lt;/b&gt;" style="text;html=1;strokeColor=none;fillColor=none;align=center;verticalAlign=top;spacingLeft=4;spacingRight=4;whiteSpace=wrap;overflow=hidden;rotatable=0;points=[[0,0.5],[1,0.5]];portConstraint=eastwest;" parent="78961159f06e98e8-69" vertex="1">
          <mxGeometry y="26" width="160" height="26" as="geometry" />
        </mxCell>
        <mxCell id="78961159f06e98e8-71" value="1- setSearch" style="text;html=1;strokeColor=none;fillColor=none;align=left;verticalAlign=top;spacingLeft=4;spacingRight=4;whiteSpace=wrap;overflow=hidden;rotatable=0;points=[[0,0.5],[1,0.5]];portConstraint=eastwest;" parent="78961159f06e98e8-69" vertex="1">
          <mxGeometry y="52" width="160" height="26" as="geometry" />
        </mxCell>
        <mxCell id="78961159f06e98e8-72" value="2-&amp;nbsp;&lt;span style=&quot;font-family: Consolas, &amp;quot;Courier New&amp;quot;, monospace; font-size: 14px; white-space: pre;&quot;&gt;setAlign&lt;/span&gt;" style="text;html=1;strokeColor=none;fillColor=none;align=left;verticalAlign=top;spacingLeft=4;spacingRight=4;whiteSpace=wrap;overflow=hidden;rotatable=0;points=[[0,0.5],[1,0.5]];portConstraint=eastwest;textShadow=0;fontColor=default;labelBackgroundColor=default;" parent="78961159f06e98e8-69" vertex="1">
          <mxGeometry y="78" width="160" height="26" as="geometry" />
        </mxCell>
        <mxCell id="BQu4C3gWIdR_t5J09sVz-29" value="3-&amp;nbsp;&lt;span style=&quot;font-family: Consolas, &amp;quot;Courier New&amp;quot;, monospace; font-size: 14px; white-space: pre;&quot;&gt;align&lt;/span&gt;" style="text;html=1;strokeColor=none;fillColor=none;align=left;verticalAlign=top;spacingLeft=4;spacingRight=4;whiteSpace=wrap;overflow=hidden;rotatable=0;points=[[0,0.5],[1,0.5]];portConstraint=eastwest;textShadow=0;fontColor=default;labelBackgroundColor=default;" parent="78961159f06e98e8-69" vertex="1">
          <mxGeometry y="104" width="160" height="26" as="geometry" />
        </mxCell>
        <mxCell id="BQu4C3gWIdR_t5J09sVz-30" value="4-&amp;nbsp;&lt;span style=&quot;font-family: Consolas, &amp;quot;Courier New&amp;quot;, monospace; font-size: 14px; white-space: pre;&quot;&gt;setBorder&lt;/span&gt;" style="text;html=1;strokeColor=none;fillColor=none;align=left;verticalAlign=top;spacingLeft=4;spacingRight=4;whiteSpace=wrap;overflow=hidden;rotatable=0;points=[[0,0.5],[1,0.5]];portConstraint=eastwest;textShadow=0;fontColor=default;labelBackgroundColor=default;" parent="78961159f06e98e8-69" vertex="1">
          <mxGeometry y="130" width="160" height="26" as="geometry" />
        </mxCell>
        <mxCell id="BQu4C3gWIdR_t5J09sVz-31" value="5- Border" style="text;html=1;strokeColor=none;fillColor=none;align=left;verticalAlign=top;spacingLeft=4;spacingRight=4;whiteSpace=wrap;overflow=hidden;rotatable=0;points=[[0,0.5],[1,0.5]];portConstraint=eastwest;textShadow=0;fontColor=default;labelBackgroundColor=default;" parent="78961159f06e98e8-69" vertex="1">
          <mxGeometry y="156" width="160" height="26" as="geometry" />
        </mxCell>
        <mxCell id="BQu4C3gWIdR_t5J09sVz-9" value="" style="line;html=1;strokeWidth=1;fillColor=none;align=left;verticalAlign=middle;spacingTop=-1;spacingLeft=3;spacingRight=3;rotatable=0;labelPosition=right;points=[];portConstraint=eastwest;" parent="78961159f06e98e8-69" vertex="1">
          <mxGeometry y="182" width="160" height="8" as="geometry" />
        </mxCell>
        <mxCell id="BQu4C3gWIdR_t5J09sVz-40" value="&lt;span style=&quot;font-size: 17px;&quot;&gt;&lt;b&gt;Return&lt;/b&gt;&lt;/span&gt;" style="text;html=1;strokeColor=none;fillColor=none;align=center;verticalAlign=top;spacingLeft=4;spacingRight=4;whiteSpace=wrap;overflow=hidden;rotatable=0;points=[[0,0.5],[1,0.5]];portConstraint=eastwest;" parent="78961159f06e98e8-69" vertex="1">
          <mxGeometry y="190" width="160" height="26" as="geometry" />
        </mxCell>
        <mxCell id="BQu4C3gWIdR_t5J09sVz-41" value="1- Value set by SetSearch" style="text;html=1;strokeColor=none;fillColor=none;align=left;verticalAlign=top;spacingLeft=4;spacingRight=4;whiteSpace=wrap;overflow=hidden;rotatable=0;points=[[0,0.5],[1,0.5]];portConstraint=eastwest;textShadow=0;fontColor=default;labelBackgroundColor=default;" parent="78961159f06e98e8-69" vertex="1">
          <mxGeometry y="216" width="160" height="26" as="geometry" />
        </mxCell>
        <mxCell id="BQu4C3gWIdR_t5J09sVz-42" value="2- Value set by setAlign" style="text;html=1;strokeColor=none;fillColor=none;align=left;verticalAlign=top;spacingLeft=4;spacingRight=4;whiteSpace=wrap;overflow=hidden;rotatable=0;points=[[0,0.5],[1,0.5]];portConstraint=eastwest;textShadow=0;fontColor=default;labelBackgroundColor=default;" parent="78961159f06e98e8-69" vertex="1">
          <mxGeometry y="242" width="160" height="26" as="geometry" />
        </mxCell>
        <mxCell id="BQu4C3gWIdR_t5J09sVz-43" value="3- Value set by setBorder" style="text;html=1;strokeColor=none;fillColor=none;align=left;verticalAlign=top;spacingLeft=4;spacingRight=4;whiteSpace=wrap;overflow=hidden;rotatable=0;points=[[0,0.5],[1,0.5]];portConstraint=eastwest;textShadow=0;fontColor=default;labelBackgroundColor=default;" parent="78961159f06e98e8-69" vertex="1">
          <mxGeometry y="268" width="160" height="26" as="geometry" />
        </mxCell>
        <mxCell id="BQu4C3gWIdR_t5J09sVz-2" value="MainTable" style="swimlane;html=1;fontStyle=1;align=center;verticalAlign=top;childLayout=stackLayout;horizontal=1;startSize=26;horizontalStack=0;resizeParent=1;resizeLast=0;collapsible=1;marginBottom=0;swimlaneFillColor=#ffffff;rounded=0;shadow=0;comic=0;labelBackgroundColor=none;strokeWidth=1;fillColor=#f8cecc;fontFamily=Verdana;fontSize=12;strokeColor=#b85450;" parent="1" vertex="1">
          <mxGeometry x="560" y="280" width="160" height="480" as="geometry" />
        </mxCell>
        <mxCell id="BQu4C3gWIdR_t5J09sVz-3" value="&lt;font style=&quot;font-size: 15px;&quot;&gt;&lt;b&gt;Take&lt;/b&gt;&lt;/font&gt;" style="text;html=1;strokeColor=none;fillColor=none;align=center;verticalAlign=top;spacingLeft=4;spacingRight=4;whiteSpace=wrap;overflow=hidden;rotatable=0;points=[[0,0.5],[1,0.5]];portConstraint=eastwest;" parent="BQu4C3gWIdR_t5J09sVz-2" vertex="1">
          <mxGeometry y="26" width="160" height="26" as="geometry" />
        </mxCell>
        <mxCell id="BQu4C3gWIdR_t5J09sVz-4" value="1- search" style="text;html=1;strokeColor=none;fillColor=none;align=left;verticalAlign=top;spacingLeft=4;spacingRight=4;whiteSpace=wrap;overflow=hidden;rotatable=0;points=[[0,0.5],[1,0.5]];portConstraint=eastwest;" parent="BQu4C3gWIdR_t5J09sVz-2" vertex="1">
          <mxGeometry y="52" width="160" height="26" as="geometry" />
        </mxCell>
        <mxCell id="BQu4C3gWIdR_t5J09sVz-5" value="2- align" style="text;html=1;strokeColor=none;fillColor=none;align=left;verticalAlign=top;spacingLeft=4;spacingRight=4;whiteSpace=wrap;overflow=hidden;rotatable=0;points=[[0,0.5],[1,0.5]];portConstraint=eastwest;" parent="BQu4C3gWIdR_t5J09sVz-2" vertex="1">
          <mxGeometry y="78" width="160" height="26" as="geometry" />
        </mxCell>
        <mxCell id="Ejn6gaaikQ-Xtd8Uwc8r-41" value="3- border" style="text;html=1;strokeColor=none;fillColor=none;align=left;verticalAlign=top;spacingLeft=4;spacingRight=4;whiteSpace=wrap;overflow=hidden;rotatable=0;points=[[0,0.5],[1,0.5]];portConstraint=eastwest;" parent="BQu4C3gWIdR_t5J09sVz-2" vertex="1">
          <mxGeometry y="104" width="160" height="26" as="geometry" />
        </mxCell>
        <mxCell id="BQu4C3gWIdR_t5J09sVz-6" value="4- headTable" style="text;html=1;strokeColor=none;fillColor=none;align=left;verticalAlign=top;spacingLeft=4;spacingRight=4;whiteSpace=wrap;overflow=hidden;rotatable=0;points=[[0,0.5],[1,0.5]];portConstraint=eastwest;" parent="BQu4C3gWIdR_t5J09sVz-2" vertex="1">
          <mxGeometry y="130" width="160" height="26" as="geometry" />
        </mxCell>
        <mxCell id="BQu4C3gWIdR_t5J09sVz-7" value="5- data" style="text;html=1;strokeColor=none;fillColor=none;align=left;verticalAlign=top;spacingLeft=4;spacingRight=4;whiteSpace=wrap;overflow=hidden;rotatable=0;points=[[0,0.5],[1,0.5]];portConstraint=eastwest;" parent="BQu4C3gWIdR_t5J09sVz-2" vertex="1">
          <mxGeometry y="156" width="160" height="26" as="geometry" />
        </mxCell>
        <mxCell id="BQu4C3gWIdR_t5J09sVz-8" value="6- keyObject" style="text;html=1;strokeColor=none;fillColor=none;align=left;verticalAlign=top;spacingLeft=4;spacingRight=4;whiteSpace=wrap;overflow=hidden;rotatable=0;points=[[0,0.5],[1,0.5]];portConstraint=eastwest;" parent="BQu4C3gWIdR_t5J09sVz-2" vertex="1">
          <mxGeometry y="182" width="160" height="26" as="geometry" />
        </mxCell>
        <mxCell id="BQu4C3gWIdR_t5J09sVz-11" value="7- keyFilter" style="text;html=1;strokeColor=none;fillColor=none;align=left;verticalAlign=top;spacingLeft=4;spacingRight=4;whiteSpace=wrap;overflow=hidden;rotatable=0;points=[[0,0.5],[1,0.5]];portConstraint=eastwest;" parent="BQu4C3gWIdR_t5J09sVz-2" vertex="1">
          <mxGeometry y="208" width="160" height="26" as="geometry" />
        </mxCell>
        <mxCell id="BQu4C3gWIdR_t5J09sVz-12" value="8- setShowForm" style="text;html=1;strokeColor=none;fillColor=none;align=left;verticalAlign=top;spacingLeft=4;spacingRight=4;whiteSpace=wrap;overflow=hidden;rotatable=0;points=[[0,0.5],[1,0.5]];portConstraint=eastwest;" parent="BQu4C3gWIdR_t5J09sVz-2" vertex="1">
          <mxGeometry y="234" width="160" height="26" as="geometry" />
        </mxCell>
        <mxCell id="BQu4C3gWIdR_t5J09sVz-13" value="9- setEditData" style="text;html=1;strokeColor=none;fillColor=none;align=left;verticalAlign=top;spacingLeft=4;spacingRight=4;whiteSpace=wrap;overflow=hidden;rotatable=0;points=[[0,0.5],[1,0.5]];portConstraint=eastwest;" parent="BQu4C3gWIdR_t5J09sVz-2" vertex="1">
          <mxGeometry y="260" width="160" height="26" as="geometry" />
        </mxCell>
        <mxCell id="BQu4C3gWIdR_t5J09sVz-53" value="10- setDeleteItem" style="text;html=1;strokeColor=none;fillColor=none;align=left;verticalAlign=top;spacingLeft=4;spacingRight=4;whiteSpace=wrap;overflow=hidden;rotatable=0;points=[[0,0.5],[1,0.5]];portConstraint=eastwest;" parent="BQu4C3gWIdR_t5J09sVz-2" vertex="1">
          <mxGeometry y="286" width="160" height="26" as="geometry" />
        </mxCell>
        <mxCell id="BQu4C3gWIdR_t5J09sVz-54" value="11- setDeleteMultiple" style="text;html=1;strokeColor=none;fillColor=none;align=left;verticalAlign=top;spacingLeft=4;spacingRight=4;whiteSpace=wrap;overflow=hidden;rotatable=0;points=[[0,0.5],[1,0.5]];portConstraint=eastwest;fontFamily=Helvetica;fontSize=12;fontColor=default;" parent="BQu4C3gWIdR_t5J09sVz-2" vertex="1">
          <mxGeometry y="312" width="160" height="26" as="geometry" />
        </mxCell>
        <mxCell id="BQu4C3gWIdR_t5J09sVz-52" value="" style="line;html=1;strokeWidth=1;fillColor=none;align=left;verticalAlign=middle;spacingTop=-1;spacingLeft=3;spacingRight=3;rotatable=0;labelPosition=right;points=[];portConstraint=eastwest;" parent="BQu4C3gWIdR_t5J09sVz-2" vertex="1">
          <mxGeometry y="338" width="160" height="8" as="geometry" />
        </mxCell>
        <mxCell id="BQu4C3gWIdR_t5J09sVz-55" value="&lt;b&gt;&lt;font style=&quot;font-size: 15px;&quot;&gt;Return&lt;/font&gt;&lt;/b&gt;" style="text;html=1;strokeColor=none;fillColor=none;align=center;verticalAlign=top;spacingLeft=4;spacingRight=4;whiteSpace=wrap;overflow=hidden;rotatable=0;points=[[0,0.5],[1,0.5]];portConstraint=eastwest;" parent="BQu4C3gWIdR_t5J09sVz-2" vertex="1">
          <mxGeometry y="346" width="160" height="26" as="geometry" />
        </mxCell>
        <mxCell id="c2nVhI1lKvrCwRCXkf1z-3" value="1- object Ele selectd to Edit" style="text;html=1;strokeColor=none;fillColor=none;align=left;verticalAlign=top;spacingLeft=4;spacingRight=4;whiteSpace=wrap;overflow=hidden;rotatable=1;points=[[0,0.5],[1,0.5]];portConstraint=eastwest;movable=1;resizable=1;deletable=1;editable=1;locked=0;connectable=1;" parent="BQu4C3gWIdR_t5J09sVz-2" vertex="1">
          <mxGeometry y="372" width="160" height="26" as="geometry" />
        </mxCell>
        <mxCell id="c2nVhI1lKvrCwRCXkf1z-1" value="2- id selected Ele to delete" style="text;html=1;strokeColor=none;fillColor=none;align=left;verticalAlign=top;spacingLeft=4;spacingRight=4;whiteSpace=wrap;overflow=hidden;rotatable=1;points=[[0,0.5],[1,0.5]];portConstraint=eastwest;movable=1;resizable=1;deletable=1;editable=1;locked=0;connectable=1;" parent="BQu4C3gWIdR_t5J09sVz-2" vertex="1">
          <mxGeometry y="398" width="160" height="26" as="geometry" />
        </mxCell>
        <mxCell id="Ejn6gaaikQ-Xtd8Uwc8r-40" style="edgeStyle=orthogonalEdgeStyle;rounded=0;orthogonalLoop=1;jettySize=auto;html=1;exitX=1;exitY=0.5;exitDx=0;exitDy=0;" parent="BQu4C3gWIdR_t5J09sVz-2" source="BQu4C3gWIdR_t5J09sVz-54" target="BQu4C3gWIdR_t5J09sVz-54" edge="1">
          <mxGeometry relative="1" as="geometry" />
        </mxCell>
        <mxCell id="c2nVhI1lKvrCwRCXkf1z-2" value="3- Array of IDs selectd to delete&amp;nbsp;" style="text;html=1;strokeColor=none;fillColor=none;align=left;verticalAlign=top;spacingLeft=4;spacingRight=4;whiteSpace=wrap;overflow=hidden;rotatable=1;points=[[0,0.5],[1,0.5]];portConstraint=eastwest;movable=1;resizable=1;deletable=1;editable=1;locked=0;connectable=1;" parent="BQu4C3gWIdR_t5J09sVz-2" vertex="1">
          <mxGeometry y="424" width="160" height="38" as="geometry" />
        </mxCell>
        <mxCell id="BQu4C3gWIdR_t5J09sVz-46" value="&lt;h1 style=&quot;text-align: center; margin-top: 0px; padding-top: 10px;&quot;&gt;setAlign&lt;/h1&gt;&lt;h1 style=&quot;margin: 10px; line-height: 19.6px; font-size: 14px; padding-top: 0px; padding-left: 0px;&quot;&gt;&lt;span style=&quot;font-weight: normal;&quot;&gt;is a function used to update the align state variable within the Page&amp;nbsp;&lt;span style=&quot;white-space-collapse: preserve; color: rgb(13, 13, 13); font-family: Söhne, ui-sans-serif, system-ui, -apple-system, &amp;quot;Segoe UI&amp;quot;, Roboto, Ubuntu, Cantarell, &amp;quot;Noto Sans&amp;quot;, sans-serif, &amp;quot;Helvetica Neue&amp;quot;, Arial, &amp;quot;Apple Color Emoji&amp;quot;, &amp;quot;Segoe UI Emoji&amp;quot;, &amp;quot;Segoe UI Symbol&amp;quot;, &amp;quot;Noto Color Emoji&amp;quot;;&quot;&gt;component&lt;/span&gt;&lt;/span&gt;&lt;/h1&gt;" style="text;html=1;whiteSpace=wrap;overflow=hidden;rounded=0;labelBackgroundColor=default;labelBorderColor=default;spacingLeft=0;" parent="1" vertex="1">
          <mxGeometry x="-670" y="1110" width="250" height="138.5" as="geometry" />
        </mxCell>
        <mxCell id="BQu4C3gWIdR_t5J09sVz-49" value="&lt;h1 style=&quot;text-align: center; margin-top: 0px; padding-top: 10px;&quot;&gt;setBorder&lt;/h1&gt;&lt;h1 style=&quot;margin: 10px; line-height: 140%; font-size: 14px; padding-left: 0px; padding-right: 0px;&quot;&gt;&lt;span style=&quot;font-weight: normal;&quot;&gt;is a function used to update the border state variable within the Page &lt;span style=&quot;white-space-collapse: preserve; color: rgb(13, 13, 13); font-family: Söhne, ui-sans-serif, system-ui, -apple-system, &amp;quot;Segoe UI&amp;quot;, Roboto, Ubuntu, Cantarell, &amp;quot;Noto Sans&amp;quot;, sans-serif, &amp;quot;Helvetica Neue&amp;quot;, Arial, &amp;quot;Apple Color Emoji&amp;quot;, &amp;quot;Segoe UI Emoji&amp;quot;, &amp;quot;Segoe UI Symbol&amp;quot;, &amp;quot;Noto Color Emoji&amp;quot;;&quot;&gt;component&lt;/span&gt;&lt;/span&gt;&lt;/h1&gt;" style="text;html=1;whiteSpace=wrap;overflow=hidden;rounded=0;labelBackgroundColor=default;labelBorderColor=default;" parent="1" vertex="1">
          <mxGeometry x="-670" y="970" width="250" height="140" as="geometry" />
        </mxCell>
        <mxCell id="BQu4C3gWIdR_t5J09sVz-50" value="&lt;p style=&quot;line-height: 40%;&quot;&gt;&lt;/p&gt;&lt;h1 style=&quot;forced-color-adjust: none; cursor: auto; color: rgb(0, 0, 0); font-family: Helvetica; font-style: normal; font-variant-ligatures: normal; font-variant-caps: normal; letter-spacing: normal; orphans: 2; text-indent: 0px; text-transform: none; widows: 2; word-spacing: 0px; -webkit-text-stroke-width: 0px; white-space: normal; text-decoration-thickness: initial; text-decoration-style: initial; text-decoration-color: initial; margin-top: 0px; user-select: text !important; margin-bottom: 14px; margin-left: 0px;&quot;&gt;border&lt;/h1&gt;&lt;h1 style=&quot;text-align: left; margin-top: 0px; line-height: 19.6px; margin-bottom: 0px; margin-left: 10px; padding-right: 10px; padding-left: 10px;&quot;&gt;&lt;span style=&quot;color: rgb(13, 13, 13); font-family: Söhne, ui-sans-serif, system-ui, -apple-system, &amp;quot;Segoe UI&amp;quot;, Roboto, Ubuntu, Cantarell, &amp;quot;Noto Sans&amp;quot;, sans-serif, &amp;quot;Helvetica Neue&amp;quot;, Arial, &amp;quot;Apple Color Emoji&amp;quot;, &amp;quot;Segoe UI Emoji&amp;quot;, &amp;quot;Segoe UI Symbol&amp;quot;, &amp;quot;Noto Color Emoji&amp;quot;; font-weight: 400; white-space-collapse: preserve;&quot;&gt;&lt;font style=&quot;font-size: 14px;&quot;&gt;determines the current alignment setting and shows the corresponding icon in the UI&lt;/font&gt;&lt;/span&gt;&lt;/h1&gt;&lt;p&gt;&lt;/p&gt;" style="text;whiteSpace=wrap;html=1;labelBackgroundColor=default;spacingTop=0;spacingRight=0;spacingLeft=0;strokeColor=none;align=center;fillColor=none;imageAspect=0;absoluteArcSize=0;noLabel=0;labelPadding=0;rotation=0;rounded=0;arcSize=16;glass=0;labelPosition=center;verticalLabelPosition=middle;verticalAlign=middle;labelBorderColor=default;spacing=0;horizontal=1;imageWidth=21;imageHeight=31;enumerate=0;treeFolding=0;resizeWidth=0;resizeHeight=0;container=0;" parent="1" vertex="1">
          <mxGeometry x="-393" y="1006.5" width="280" height="60" as="geometry" />
        </mxCell>
        <mxCell id="Ejn6gaaikQ-Xtd8Uwc8r-4" value="&lt;h1 style=&quot;text-align: center; margin-top: 0px; line-height: 100%; padding-top: 10px;&quot;&gt;search&lt;/h1&gt;&lt;h1 style=&quot;margin: 10px; line-height: 100%; padding-left: 0px; padding-right: 0px;&quot;&gt;&lt;span style=&quot;font-size: 14px; font-weight: 400;&quot;&gt;Get the value entered to filter data and display related data&lt;/span&gt;&lt;br&gt;&lt;/h1&gt;" style="text;html=1;whiteSpace=wrap;overflow=hidden;rounded=0;labelBackgroundColor=default;labelBorderColor=default;shadow=0;" parent="1" vertex="1">
          <mxGeometry x="10" y="970" width="270" height="126.5" as="geometry" />
        </mxCell>
        <mxCell id="Ejn6gaaikQ-Xtd8Uwc8r-36" value="&lt;h1 style=&quot;text-align: center; margin-top: 0px; line-height: 100%; padding-top: 10px;&quot;&gt;align&lt;/h1&gt;&lt;h1 style=&quot;margin: 10px; line-height: 100%; padding-left: 0px; padding-right: 0px;&quot;&gt;&lt;span style=&quot;font-size: 14px; font-weight: 400;&quot;&gt;Get the value entered to change align text in table (Left , Center , Right )&lt;/span&gt;&lt;br&gt;&lt;/h1&gt;" style="text;html=1;whiteSpace=wrap;overflow=hidden;rounded=0;labelBackgroundColor=default;labelBorderColor=default;shadow=0;" parent="1" vertex="1">
          <mxGeometry x="290" y="973.25" width="270" height="126.5" as="geometry" />
        </mxCell>
        <mxCell id="Ejn6gaaikQ-Xtd8Uwc8r-37" value="&lt;h1 style=&quot;text-align: center; margin-top: 0px; line-height: 100%;&quot;&gt;&lt;span style=&quot;text-align: left;&quot;&gt;data&lt;/span&gt;&lt;/h1&gt;&lt;h1 style=&quot;text-align: left; margin-top: 0px; line-height: 100%; padding-left: 10px; padding-right: 10px;&quot;&gt;&lt;span style=&quot;color: rgb(13, 13, 13); font-family: Söhne, ui-sans-serif, system-ui, -apple-system, &amp;quot;Segoe UI&amp;quot;, Roboto, Ubuntu, Cantarell, &amp;quot;Noto Sans&amp;quot;, sans-serif, &amp;quot;Helvetica Neue&amp;quot;, Arial, &amp;quot;Apple Color Emoji&amp;quot;, &amp;quot;Segoe UI Emoji&amp;quot;, &amp;quot;Segoe UI Symbol&amp;quot;, &amp;quot;Noto Color Emoji&amp;quot;; font-size: 16px; font-weight: 400; white-space-collapse: preserve;&quot;&gt;The array contains many objects of data&lt;/span&gt;&lt;br&gt;&lt;/h1&gt;" style="text;html=1;whiteSpace=wrap;overflow=hidden;rounded=0;labelBackgroundColor=default;labelBorderColor=default;shadow=0;" parent="1" vertex="1">
          <mxGeometry x="570" y="971.62" width="270" height="123.25" as="geometry" />
        </mxCell>
        <mxCell id="Ejn6gaaikQ-Xtd8Uwc8r-38" value="&lt;h1 style=&quot;text-align: center; margin-top: 0px; padding-top: 10px;&quot;&gt;border&lt;/h1&gt;&lt;h1 style=&quot;margin: 10px; line-height: 80%; padding-left: 0px; padding-right: 0px;&quot;&gt;&lt;span style=&quot;font-size: 14px; font-weight: 400;&quot;&gt;Get the value entered to determine whether to add a border to the table or not.&lt;/span&gt;&lt;br&gt;&lt;/h1&gt;" style="text;html=1;whiteSpace=wrap;overflow=hidden;rounded=0;labelBackgroundColor=default;labelBorderColor=default;" parent="1" vertex="1">
          <mxGeometry x="10" y="1090" width="270" height="140" as="geometry" />
        </mxCell>
        <mxCell id="Ejn6gaaikQ-Xtd8Uwc8r-43" value="&lt;h1 style=&quot;text-align: center; margin-top: 0px;&quot;&gt;headTable&lt;/h1&gt;&lt;h1 style=&quot;margin: 10px; line-height: 80%; padding-left: 0px; padding-right: 0px;&quot;&gt;&lt;span style=&quot;color: rgb(13, 13, 13); font-family: Söhne, ui-sans-serif, system-ui, -apple-system, &amp;quot;Segoe UI&amp;quot;, Roboto, Ubuntu, Cantarell, &amp;quot;Noto Sans&amp;quot;, sans-serif, &amp;quot;Helvetica Neue&amp;quot;, Arial, &amp;quot;Apple Color Emoji&amp;quot;, &amp;quot;Segoe UI Emoji&amp;quot;, &amp;quot;Segoe UI Symbol&amp;quot;, &amp;quot;Noto Color Emoji&amp;quot;; font-size: 16px; font-weight: 400; white-space-collapse: preserve;&quot;&gt;The names of the table headers; to sort them within the table thead&lt;/span&gt;&lt;br&gt;&lt;/h1&gt;" style="text;html=1;whiteSpace=wrap;overflow=hidden;rounded=0;labelBackgroundColor=default;labelBorderColor=default;" parent="1" vertex="1">
          <mxGeometry x="570" y="1096.5" width="270" height="103.5" as="geometry" />
        </mxCell>
        <mxCell id="Ejn6gaaikQ-Xtd8Uwc8r-44" value="&lt;h1 style=&quot;text-align: center; margin-top: 0px; line-height: 100%; padding-top: 10px;&quot;&gt;&lt;span style=&quot;text-align: left;&quot;&gt;keyObject&lt;/span&gt;&lt;/h1&gt;&lt;h1 style=&quot;text-align: left; margin-top: 0px; line-height: 100%; padding-left: 10px; padding-right: 10px;&quot;&gt;&lt;font face=&quot;Söhne, ui-sans-serif, system-ui, -apple-system, Segoe UI, Roboto, Ubuntu, Cantarell, Noto Sans, sans-serif, Helvetica Neue, Arial, Apple Color Emoji, Segoe UI Emoji, Segoe UI Symbol, Noto Color Emoji&quot; color=&quot;#0d0d0d&quot;&gt;&lt;span style=&quot;font-size: 16px; font-weight: 400; white-space-collapse: preserve;&quot;&gt;An array of strings representing the keys of the objects in the data array. These keys are used to access the values of each row object.&lt;/span&gt;&lt;/font&gt;&lt;br&gt;&lt;/h1&gt;" style="text;html=1;whiteSpace=wrap;overflow=hidden;rounded=0;labelBackgroundColor=default;labelBorderColor=default;shadow=0;" parent="1" vertex="1">
          <mxGeometry x="10" y="1390" width="270" height="220" as="geometry" />
        </mxCell>
        <mxCell id="Ejn6gaaikQ-Xtd8Uwc8r-45" value="&lt;h1 style=&quot;text-align: center; margin-top: 0px; line-height: 100%; padding-top: 10px;&quot;&gt;&lt;span style=&quot;text-align: left;&quot;&gt;keyFilter (Optional)&lt;/span&gt;&lt;/h1&gt;&lt;h1 style=&quot;text-align: left; margin-top: 0px; line-height: 100%; padding-left: 10px; padding-right: 10px;&quot;&gt;&lt;span style=&quot;color: rgb(13, 13, 13); font-family: Söhne, ui-sans-serif, system-ui, -apple-system, &amp;quot;Segoe UI&amp;quot;, Roboto, Ubuntu, Cantarell, &amp;quot;Noto Sans&amp;quot;, sans-serif, &amp;quot;Helvetica Neue&amp;quot;, Arial, &amp;quot;Apple Color Emoji&amp;quot;, &amp;quot;Segoe UI Emoji&amp;quot;, &amp;quot;Segoe UI Symbol&amp;quot;, &amp;quot;Noto Color Emoji&amp;quot;; font-size: 16px; font-weight: 400; white-space-collapse: preserve;&quot;&gt;An array of strings representing the keys to be used for filtering the data based on the search query.&lt;/span&gt;&lt;br&gt;&lt;/h1&gt;" style="text;html=1;whiteSpace=wrap;overflow=hidden;rounded=0;labelBackgroundColor=default;labelBorderColor=default;shadow=0;" parent="1" vertex="1">
          <mxGeometry x="290" y="1250" width="270" height="190" as="geometry" />
        </mxCell>
        <mxCell id="Ejn6gaaikQ-Xtd8Uwc8r-46" value="&lt;h1 style=&quot;text-align: center; margin-top: 0px; line-height: 100%; padding-top: 10px;&quot;&gt;&lt;span style=&quot;text-align: left;&quot;&gt;setShowForm&lt;/span&gt;&lt;/h1&gt;&lt;h1 style=&quot;text-align: left; margin-top: 0px; line-height: 100%; padding-right: 10px; padding-left: 10px;&quot;&gt;&lt;span style=&quot;color: rgb(13, 13, 13); font-family: Söhne, ui-sans-serif, system-ui, -apple-system, &amp;quot;Segoe UI&amp;quot;, Roboto, Ubuntu, Cantarell, &amp;quot;Noto Sans&amp;quot;, sans-serif, &amp;quot;Helvetica Neue&amp;quot;, Arial, &amp;quot;Apple Color Emoji&amp;quot;, &amp;quot;Segoe UI Emoji&amp;quot;, &amp;quot;Segoe UI Symbol&amp;quot;, &amp;quot;Noto Color Emoji&amp;quot;; font-size: 16px; font-weight: 400; white-space-collapse: preserve;&quot;&gt;A function used to control the visibility of a form or modal when triggered by user interaction&lt;/span&gt;&lt;br&gt;&lt;/h1&gt;" style="text;html=1;whiteSpace=wrap;overflow=hidden;rounded=0;labelBackgroundColor=default;labelBorderColor=default;shadow=0;" parent="1" vertex="1">
          <mxGeometry x="10" y="1238.25" width="270" height="150" as="geometry" />
        </mxCell>
        <mxCell id="Ejn6gaaikQ-Xtd8Uwc8r-47" value="&lt;h1 style=&quot;text-align: center; margin-top: 0px; line-height: 100%;&quot;&gt;&lt;span style=&quot;text-align: left;&quot;&gt;setEditData&lt;/span&gt;&lt;/h1&gt;&lt;h1 style=&quot;text-align: left; margin-top: 0px; line-height: 100%; padding-left: 10px; padding-right: 10px;&quot;&gt;&lt;span style=&quot;color: rgb(13, 13, 13); font-family: Söhne, ui-sans-serif, system-ui, -apple-system, &amp;quot;Segoe UI&amp;quot;, Roboto, Ubuntu, Cantarell, &amp;quot;Noto Sans&amp;quot;, sans-serif, &amp;quot;Helvetica Neue&amp;quot;, Arial, &amp;quot;Apple Color Emoji&amp;quot;, &amp;quot;Segoe UI Emoji&amp;quot;, &amp;quot;Segoe UI Symbol&amp;quot;, &amp;quot;Noto Color Emoji&amp;quot;; font-size: 16px; font-weight: 400; white-space-collapse: preserve;&quot;&gt;A function used to set the data for editing when a user interacts with the table, such as clicking on an edit button or row. This function updates the state with the data of the selected row for editing&lt;/span&gt;&lt;br&gt;&lt;/h1&gt;" style="text;html=1;whiteSpace=wrap;overflow=hidden;rounded=0;labelBackgroundColor=default;labelBorderColor=default;shadow=0;" parent="1" vertex="1">
          <mxGeometry x="570" y="1210" width="270" height="220" as="geometry" />
        </mxCell>
        <mxCell id="Ejn6gaaikQ-Xtd8Uwc8r-48" value="&lt;h1 style=&quot;text-align: center; margin-top: 0px; line-height: 100%; padding-top: 10px;&quot;&gt;&lt;span style=&quot;text-align: left;&quot;&gt;setDeleteItem&lt;/span&gt;&lt;/h1&gt;&lt;h1 style=&quot;text-align: left; margin-top: 0px; line-height: 100%; padding-right: 10px; padding-left: 10px;&quot;&gt;&lt;font face=&quot;Söhne, ui-sans-serif, system-ui, -apple-system, Segoe UI, Roboto, Ubuntu, Cantarell, Noto Sans, sans-serif, Helvetica Neue, Arial, Apple Color Emoji, Segoe UI Emoji, Segoe UI Symbol, Noto Color Emoji&quot; color=&quot;#0d0d0d&quot;&gt;&lt;span style=&quot;font-size: 16px; font-weight: 400; white-space-collapse: preserve;&quot;&gt;A function used to pass the ID of the selected item to delete it&lt;/span&gt;&lt;/font&gt;&lt;br&gt;&lt;/h1&gt;" style="text;html=1;whiteSpace=wrap;overflow=hidden;rounded=0;labelBackgroundColor=default;labelBorderColor=default;shadow=0;" parent="1" vertex="1">
          <mxGeometry x="290" y="1430" width="270" height="131.75" as="geometry" />
        </mxCell>
        <mxCell id="Ejn6gaaikQ-Xtd8Uwc8r-49" value="&lt;h1 style=&quot;text-align: center; margin-top: 0px; line-height: 100%; padding-top: 10px;&quot;&gt;&lt;span style=&quot;text-align: left;&quot;&gt;setDeleteMultiple&lt;/span&gt;&lt;/h1&gt;&lt;h1 style=&quot;text-align: left; margin-top: 0px; line-height: 100%; padding-right: 10px; padding-left: 10px;&quot;&gt;&lt;span style=&quot;color: rgb(13, 13, 13); font-family: Söhne, ui-sans-serif, system-ui, -apple-system, &amp;quot;Segoe UI&amp;quot;, Roboto, Ubuntu, Cantarell, &amp;quot;Noto Sans&amp;quot;, sans-serif, &amp;quot;Helvetica Neue&amp;quot;, Arial, &amp;quot;Apple Color Emoji&amp;quot;, &amp;quot;Segoe UI Emoji&amp;quot;, &amp;quot;Segoe UI Symbol&amp;quot;, &amp;quot;Noto Color Emoji&amp;quot;; font-size: 16px; font-weight: 400; white-space-collapse: preserve;&quot;&gt;A function used to pass the array of IDs of selected items to delete them.&lt;/span&gt;&lt;br&gt;&lt;/h1&gt;" style="text;html=1;whiteSpace=wrap;overflow=hidden;rounded=0;labelBackgroundColor=default;labelBorderColor=default;shadow=0;" parent="1" vertex="1">
          <mxGeometry x="290" y="1096.5" width="270" height="153.5" as="geometry" />
        </mxCell>
        <mxCell id="Ejn6gaaikQ-Xtd8Uwc8r-53" value="&lt;h1 style=&quot;text-align: center; margin-top: 0px; line-height: 100%;&quot;&gt;datasendEdite&lt;/h1&gt;&lt;h1 style=&quot;margin: 10px; line-height: 101%; padding-left: 0px; padding-right: 0px;&quot;&gt;&lt;span style=&quot;font-size: 14px; font-weight: 400;&quot;&gt;This prop contains the pre-filled data for editing existing entries in the form. It should conform to the structure defined by formFormat&lt;/span&gt;&lt;br&gt;&lt;/h1&gt;" style="text;html=1;whiteSpace=wrap;overflow=hidden;rounded=0;labelBackgroundColor=default;labelBorderColor=default;shadow=0;" parent="1" vertex="1">
          <mxGeometry x="940" y="1063.25" width="380" height="141.75" as="geometry" />
        </mxCell>
        <mxCell id="Ejn6gaaikQ-Xtd8Uwc8r-54" value="&lt;h1 style=&quot;text-align: center; margin-top: 0px; line-height: 100%;&quot;&gt;setEditData&lt;/h1&gt;&lt;h1 style=&quot;margin: 10px; line-height: 100%; padding-left: 0px; padding-right: 0px;&quot;&gt;&lt;span style=&quot;font-size: 14px; font-weight: 400; white-space: pre;&quot;&gt;&lt;font face=&quot;Verdana&quot;&gt;A function to empty dataSendEdit&lt;/font&gt;&lt;/span&gt;&lt;br&gt;&lt;/h1&gt;" style="text;html=1;whiteSpace=wrap;overflow=hidden;rounded=0;labelBackgroundColor=default;labelBorderColor=default;shadow=0;fontColor=default;" parent="1" vertex="1">
          <mxGeometry x="1330" y="973.25" width="280" height="126.5" as="geometry" />
        </mxCell>
        <mxCell id="Ejn6gaaikQ-Xtd8Uwc8r-55" value="&lt;h1 style=&quot;text-align: center; margin-top: 0px; line-height: 100%;&quot;&gt;setNewData&lt;/h1&gt;&lt;h1 style=&quot;margin: 10px; line-height: 100%; padding-left: 0px; padding-right: 0px;&quot;&gt;&lt;font face=&quot;Verdana&quot;&gt;&lt;span style=&quot;font-size: 14px; font-weight: 400; white-space: pre;&quot;&gt;A function to set newly entered data into the form&lt;/span&gt;&lt;/font&gt;&lt;br&gt;&lt;/h1&gt;" style="text;html=1;whiteSpace=wrap;overflow=hidden;rounded=0;labelBackgroundColor=default;labelBorderColor=default;shadow=0;fontColor=default;" parent="1" vertex="1">
          <mxGeometry x="940" y="973.25" width="380" height="90" as="geometry" />
        </mxCell>
        <mxCell id="BQu4C3gWIdR_t5J09sVz-45" value="&lt;h1 style=&quot;text-align: center; margin-top: 0px; padding-top: 10px;&quot;&gt;setSearch&lt;/h1&gt;&lt;h1 style=&quot;margin: 10px; line-height: 140%; font-size: 14px; padding-left: 0px; padding-right: 0px;&quot;&gt;&lt;span style=&quot;font-weight: normal;&quot;&gt;is a function used to update the search state variable within the Page &lt;span style=&quot;white-space-collapse: preserve; color: rgb(13, 13, 13); font-family: Söhne, ui-sans-serif, system-ui, -apple-system, &amp;quot;Segoe UI&amp;quot;, Roboto, Ubuntu, Cantarell, &amp;quot;Noto Sans&amp;quot;, sans-serif, &amp;quot;Helvetica Neue&amp;quot;, Arial, &amp;quot;Apple Color Emoji&amp;quot;, &amp;quot;Segoe UI Emoji&amp;quot;, &amp;quot;Segoe UI Symbol&amp;quot;, &amp;quot;Noto Color Emoji&amp;quot;;&quot;&gt;component&lt;/span&gt;&lt;/span&gt;&lt;/h1&gt;" style="text;html=1;whiteSpace=wrap;overflow=hidden;rounded=0;labelBackgroundColor=default;labelBorderColor=default;" parent="1" vertex="1">
          <mxGeometry x="-670" y="1245" width="250" height="136.5" as="geometry" />
        </mxCell>
        <mxCell id="Ejn6gaaikQ-Xtd8Uwc8r-60" value="&lt;h1 style=&quot;text-align: center; margin-top: 0px; padding-top: 10px;&quot;&gt;align&lt;/h1&gt;&lt;h1 style=&quot;margin-top: 0px; line-height: 19.6px; padding-left: 10px; padding-right: 10px;&quot;&gt;&lt;span style=&quot;color: rgb(13, 13, 13); font-family: Söhne, ui-sans-serif, system-ui, -apple-system, &amp;quot;Segoe UI&amp;quot;, Roboto, Ubuntu, Cantarell, &amp;quot;Noto Sans&amp;quot;, sans-serif, &amp;quot;Helvetica Neue&amp;quot;, Arial, &amp;quot;Apple Color Emoji&amp;quot;, &amp;quot;Segoe UI Emoji&amp;quot;, &amp;quot;Segoe UI Symbol&amp;quot;, &amp;quot;Noto Color Emoji&amp;quot;; font-weight: 400; white-space-collapse: preserve;&quot;&gt;&lt;font style=&quot;font-size: 14px;&quot;&gt;determines the current alignment setting and shows the corresponding icon in the UI&lt;/font&gt;&lt;/span&gt;&lt;/h1&gt;" style="text;html=1;whiteSpace=wrap;overflow=hidden;rounded=0;labelBackgroundColor=default;labelBorderColor=default;spacingLeft=0;" parent="1" vertex="1">
          <mxGeometry x="-396" y="1108.25" width="283" height="153.5" as="geometry" />
        </mxCell>
        <mxCell id="BGc9-rfhwngNxV3TcEdf-7" value="&lt;h1 style=&quot;text-align: center; margin-top: 0px;&quot;&gt;formFormat&lt;/h1&gt;&lt;p style=&quot;padding-left: 10px; padding-right: 10px;&quot;&gt;&lt;font style=&quot;font-size: 14px;&quot;&gt;An array containing the format of the form fields. Each item in the array represents a field in the form, with properties such as id, name, type, etc.&lt;/font&gt;&lt;/p&gt;" style="text;html=1;whiteSpace=wrap;overflow=hidden;rounded=0;fillColor=default;strokeColor=default;" vertex="1" parent="1">
          <mxGeometry x="940" y="1210" width="380" height="130" as="geometry" />
        </mxCell>
        <mxCell id="BGc9-rfhwngNxV3TcEdf-8" value="&lt;h1 style=&quot;text-align: center; margin-top: 0px; line-height: 100%;&quot;&gt;&lt;span style=&quot;text-align: left;&quot;&gt;setShowForm&lt;/span&gt;&lt;/h1&gt;&lt;h1 style=&quot;text-align: left; margin-top: 0px; line-height: 100%;&quot;&gt;&lt;span style=&quot;color: rgb(13, 13, 13); font-family: Söhne, ui-sans-serif, system-ui, -apple-system, &amp;quot;Segoe UI&amp;quot;, Roboto, Ubuntu, Cantarell, &amp;quot;Noto Sans&amp;quot;, sans-serif, &amp;quot;Helvetica Neue&amp;quot;, Arial, &amp;quot;Apple Color Emoji&amp;quot;, &amp;quot;Segoe UI Emoji&amp;quot;, &amp;quot;Segoe UI Symbol&amp;quot;, &amp;quot;Noto Color Emoji&amp;quot;; font-size: 16px; font-weight: 400; white-space-collapse: preserve;&quot;&gt;A function used to control the visibility of a form or modal when triggered by user interaction&lt;/span&gt;&lt;br&gt;&lt;/h1&gt;" style="text;html=1;whiteSpace=wrap;overflow=hidden;rounded=0;labelBackgroundColor=default;labelBorderColor=default;shadow=0;" vertex="1" parent="1">
          <mxGeometry x="1330" y="1063.25" width="280" height="145.25" as="geometry" />
        </mxCell>
        <mxCell id="BGc9-rfhwngNxV3TcEdf-10" style="edgeStyle=orthogonalEdgeStyle;rounded=0;orthogonalLoop=1;jettySize=auto;html=1;exitX=0.5;exitY=0;exitDx=0;exitDy=0;entryX=-0.005;entryY=0.02;entryDx=0;entryDy=0;entryPerimeter=0;" edge="1" parent="1" source="Ejn6gaaikQ-Xtd8Uwc8r-2" target="78961159f06e98e8-69">
          <mxGeometry relative="1" as="geometry" />
        </mxCell>
        <mxCell id="BGc9-rfhwngNxV3TcEdf-43" value="&lt;h1 style=&quot;text-align: center; margin-top: 0px;&quot;&gt;Add&lt;/h1&gt;&lt;p style=&quot;padding-left: 10px; padding-right: 10px; padding-bottom: 10px;&quot;&gt;1-&amp;nbsp;When clicked, &quot;Add Item&quot; (اضافه عنصر جديد), this updates the value of the state &#39;showForm&#39; to true in order to display the form.&lt;/p&gt;&lt;p style=&quot;padding-left: 10px; padding-right: 10px; padding-bottom: 10px;&quot;&gt;2-&amp;nbsp;By default, the form contains an empty object representing the structure of the current page.&lt;/p&gt;&lt;p style=&quot;padding-right: 10px; padding-left: 10px;&quot;&gt;3-&amp;nbsp;The &#39;formFormat&#39; function generates fields with data sent like ({name: &quot;name, number&quot;}). This data is split in the Form component into [key, field, type].&lt;/p&gt;&lt;p style=&quot;padding-right: 10px; padding-left: 10px;&quot;&gt;4-&amp;nbsp;&lt;span style=&quot;background-color: initial;&quot;&gt;Upon entering data, a new object is created with the field of the input in focus.&lt;/span&gt;&lt;/p&gt;&lt;div style=&quot;padding-left: 10px; padding-bottom: 10px; padding-right: 10px;&quot;&gt;&lt;span style=&quot;background-color: initial;&quot;&gt;5-&amp;nbsp;&lt;/span&gt;&lt;span style=&quot;background-color: initial;&quot;&gt;When all fields are filled and &quot;Submit&quot; (تسجيل) is clicked, a function runs to disable all input fields.&lt;/span&gt;&lt;/div&gt;&lt;div style=&quot;padding-left: 10px; padding-right: 10px; padding-bottom: 10px;&quot;&gt;&lt;span style=&quot;background-color: initial;&quot;&gt;6-&amp;nbsp;&lt;/span&gt;&lt;span style=&quot;background-color: initial;&quot;&gt;When &quot;Save&quot; (حفظ) is clicked, the state &#39;newData&#39; is updated using &#39;setNewData&#39; with the data entered by the user.&lt;/span&gt;&lt;/div&gt;&lt;div style=&quot;padding-left: 10px; padding-right: 10px; padding-bottom: 10px;&quot;&gt;&lt;span style=&quot;background-color: initial;&quot;&gt;7-&amp;nbsp;&lt;/span&gt;&lt;span style=&quot;background-color: initial;&quot;&gt;In the main page (Page.js), if &#39;newData&#39; changes, the entered data is added to the previous data, and all data is returned.&lt;/span&gt;&lt;/div&gt;&lt;div style=&quot;padding-left: 10px; padding-right: 10px;&quot;&gt;&lt;span style=&quot;background-color: initial;&quot;&gt;8-&amp;nbsp;&lt;/span&gt;&lt;span style=&quot;background-color: initial;&quot;&gt;In the table page, any changes in the data update the data shown in the table.&lt;/span&gt;&lt;/div&gt;" style="text;html=1;whiteSpace=wrap;overflow=hidden;rounded=1;fillColor=#d5e8d4;strokeColor=#82b366;gradientColor=none;arcSize=2;" vertex="1" parent="1">
          <mxGeometry x="1470" y="-640" width="570" height="340" as="geometry" />
        </mxCell>
        <mxCell id="BGc9-rfhwngNxV3TcEdf-44" value="&lt;h1 style=&quot;text-align: center; margin-top: 0px;&quot;&gt;Update&lt;/h1&gt;&lt;p style=&quot;padding-left: 10px; padding-right: 10px; padding-bottom: 10px; line-height: 40%;&quot;&gt;&lt;span style=&quot;background-color: initial;&quot;&gt;1-&lt;/span&gt;&lt;span style=&quot;background-color: initial;&quot;&gt;When &quot;Edit&quot; (تعديل) is clicked, this updates the object &#39;editData&#39; using &#39;setEditData&#39;.&lt;/span&gt;&lt;/p&gt;&lt;p style=&quot;padding-left: 10px; padding-right: 10px; padding-bottom: 10px; line-height: 40%;&quot;&gt;&lt;span style=&quot;background-color: initial;&quot;&gt;2-&lt;/span&gt;&lt;span style=&quot;background-color: initial;&quot;&gt;It updates the value of the state &#39;showForm&#39; to true in order to display the form.&lt;/span&gt;&lt;/p&gt;&lt;p style=&quot;padding-left: 10px; padding-right: 10px; padding-bottom: 10px; line-height: 150%;&quot;&gt;&lt;span style=&quot;background-color: initial;&quot;&gt;3-&amp;nbsp;&lt;/span&gt;&lt;span style=&quot;background-color: initial;&quot;&gt;The &#39;formFormat&#39; function generates fields with data sent like ({name: &quot;name, number&quot;}). This data is split in the Form component into [key, field, type].&lt;/span&gt;&lt;/p&gt;&lt;p style=&quot;padding-left: 10px; padding-right: 10px; padding-bottom: 10px; line-height: 140%;&quot;&gt;&lt;span style=&quot;background-color: initial;&quot;&gt;&amp;nbsp;4-&amp;nbsp;&lt;/span&gt;&lt;span style=&quot;background-color: initial;&quot;&gt;The value of the related input will change to the value of the input being edited. This allows users to change only specific inputs without entering data in all fields. Unchanged fields will retain their previous values.&lt;/span&gt;&lt;/p&gt;&lt;p style=&quot;padding-left: 10px; padding-right: 10px; padding-bottom: 10px; line-height: 140%;&quot;&gt;&lt;span style=&quot;background-color: initial;&quot;&gt;5-&amp;nbsp;&lt;/span&gt;&lt;span style=&quot;background-color: initial;&quot;&gt;When all fields are filled and &quot;Submit&quot; (تسجيل) is clicked, a function runs to disable all input fields to preview the data.&lt;/span&gt;&lt;/p&gt;&lt;p style=&quot;padding-left: 10px; padding-right: 10px; padding-bottom: 10px; line-height: 140%;&quot;&gt;&lt;span style=&quot;background-color: initial;&quot;&gt;6-&amp;nbsp;&lt;/span&gt;&lt;span style=&quot;background-color: initial;&quot;&gt;When &quot;Save&quot; (حفظ) is clicked, the state &#39;newData&#39; is updated using &#39;setNewData&#39; with the data entered by the user.&lt;/span&gt;&lt;/p&gt;&lt;div style=&quot;padding-bottom: 10px; padding-left: 10px; padding-right: 10px;&quot;&gt;&lt;span style=&quot;background-color: initial;&quot;&gt;7-&amp;nbsp;&lt;/span&gt;&lt;span style=&quot;background-color: initial;&quot;&gt;In the main page (Page.js), if &#39;newData&#39; has an ID that is already in the data array, it is replaced with the new data obtained from the user.&lt;/span&gt;&lt;/div&gt;&lt;div&gt;&lt;br&gt;&lt;/div&gt;&lt;div style=&quot;padding-right: 10px; padding-left: 10px; padding-bottom: 10px;&quot;&gt;8-&amp;nbsp;In the table page, any change in data updates the data shown in the table.&lt;/div&gt;&lt;div style=&quot;line-height: 140%;&quot;&gt;&lt;br&gt;&lt;/div&gt;" style="text;html=1;whiteSpace=wrap;overflow=hidden;rounded=1;fillColor=#d5e8d4;strokeColor=#82b366;gradientColor=none;arcSize=2;" vertex="1" parent="1">
          <mxGeometry x="1470" y="-280" width="570" height="420" as="geometry" />
        </mxCell>
        <mxCell id="BGc9-rfhwngNxV3TcEdf-45" value="&lt;h1 style=&quot;text-align: center; margin-top: 0px;&quot;&gt;DeleteItem&lt;/h1&gt;&lt;p style=&quot;padding-left: 10px; padding-right: 10px; padding-bottom: 10px; line-height: 140%;&quot;&gt;&lt;span style=&quot;background-color: initial;&quot;&gt;1-&lt;/span&gt;&lt;span style=&quot;background-color: initial;&quot;&gt;When &quot;Delete&quot; (حذف) is clicked, this updates the value of the state with &#39;deleteItem&#39; using &#39;setDeleteItem&#39;.&lt;/span&gt;&lt;/p&gt;&lt;p style=&quot;padding-left: 10px; padding-right: 10px; padding-bottom: 10px; line-height: 130%;&quot;&gt;&lt;span style=&quot;background-color: initial;&quot;&gt;2-&lt;/span&gt;&lt;span style=&quot;background-color: initial;&quot;&gt;In the main page (Page.js), a watch is implemented to detect changes in the deleted item. When the delete item state changes and contains a value, a function is triggered to filter the data and remove the item with the selected ID.&lt;/span&gt;&lt;/p&gt;&lt;p style=&quot;padding-left: 10px; padding-right: 10px; padding-bottom: 10px; line-height: 150%;&quot;&gt;&lt;span style=&quot;background-color: initial;&quot;&gt;3-&amp;nbsp;&lt;/span&gt;&lt;span style=&quot;background-color: initial;&quot;&gt;After deleting the item, the value of the state &#39;deleteItem&#39; is updated to empty using &#39;setDeleteItem&#39; to exit the function (as a protection against infinite loops).&lt;/span&gt;&lt;br&gt;&lt;/p&gt;&lt;p style=&quot;padding-left: 10px; padding-right: 10px; padding-bottom: 10px; line-height: 150%;&quot;&gt;&lt;span style=&quot;background-color: initial;&quot;&gt;4-&amp;nbsp;&lt;/span&gt;&lt;span style=&quot;background-color: initial;&quot;&gt;In the table page, any change in data updates the data shown in the table.&lt;/span&gt;&lt;/p&gt;" style="text;html=1;whiteSpace=wrap;overflow=hidden;rounded=1;fillColor=#d5e8d4;strokeColor=#82b366;gradientColor=none;arcSize=2;" vertex="1" parent="1">
          <mxGeometry x="1470" y="155" width="570" height="265" as="geometry" />
        </mxCell>
        <mxCell id="BGc9-rfhwngNxV3TcEdf-46" value="&lt;h1 style=&quot;text-align: center; margin-top: 0px;&quot;&gt;DeleteMultiple&lt;/h1&gt;&lt;p style=&quot;padding-left: 10px; padding-right: 10px; padding-bottom: 10px; line-height: 140%;&quot;&gt;&lt;span style=&quot;background-color: initial;&quot;&gt;1-&amp;nbsp;&lt;/span&gt;&lt;span style=&quot;background-color: initial;&quot;&gt;When multiple items are selected and &quot;Delete&quot; (حذف) is clicked, this updates the value of &#39;deleteMultiple&#39; to an array containing all the IDs of the selected items, using &#39;setDeleteMultiple&#39;.&lt;/span&gt;&lt;/p&gt;&lt;p style=&quot;padding-left: 10px; padding-right: 10px; padding-bottom: 10px; line-height: 130%;&quot;&gt;&lt;span style=&quot;background-color: initial;&quot;&gt;2-&amp;nbsp;&lt;/span&gt;&lt;span style=&quot;background-color: initial;&quot;&gt;If the value of &#39;deleteMultiple&#39; changes, a function is triggered to iterate through the array values and filter the data accordingly.&lt;/span&gt;&lt;/p&gt;&lt;p style=&quot;padding-left: 10px; padding-right: 10px; padding-bottom: 10px; line-height: 150%;&quot;&gt;&lt;span style=&quot;background-color: initial;&quot;&gt;3-&amp;nbsp;&lt;/span&gt;&lt;span style=&quot;background-color: initial;&quot;&gt;After deleting all items, the state &#39;deleteMultiple&#39; is updated to empty using &#39;setDeleteMultiple&#39; to exit the function (as a protection against infinite loops).&lt;/span&gt;&lt;/p&gt;&lt;p style=&quot;padding-left: 10px; padding-right: 10px; padding-bottom: 10px; line-height: 150%;&quot;&gt;&lt;span style=&quot;background-color: initial;&quot;&gt;4-&amp;nbsp;&lt;/span&gt;&lt;span style=&quot;background-color: initial;&quot;&gt;In the table page, any change in data updates the data shown in the table.&lt;/span&gt;&lt;/p&gt;" style="text;html=1;whiteSpace=wrap;overflow=hidden;rounded=1;fillColor=#d5e8d4;strokeColor=#82b366;gradientColor=none;arcSize=2;" vertex="1" parent="1">
          <mxGeometry x="1470" y="440" width="570" height="250" as="geometry" />
        </mxCell>
      </root>
    </mxGraphModel>
  </diagram>
</mxfile>
